<svg data-v-29081953="" xmlns="http://www.w3.org/2000/svg" viewBox="0 0 300 300"><!----><defs data-v-29081953=""><!----></defs><defs data-v-29081953=""><linearGradient data-v-29081953="" gradientTransform="rotate(25)" id="a71aaf32-4afb-4a3d-bd00-aa3c037f5353" x1="0%" y1="0%" x2="100%" y2="0%"><stop data-v-29081953="" offset="0%" stop-color="#0978A6" stop-opacity="1"></stop><stop data-v-29081953="" offset="100%" stop-color="#FB9447" stop-opacity="1"></stop></linearGradient></defs><g data-v-29081953="" id="02f37b61-3052-4186-a427-46c22db2be3f" fill="url(#a71aaf32-4afb-4a3d-bd00-aa3c037f5353)" stroke="none" transform="matrix(2.216379005679945,0,0,2.216379005679945,39.182156107800566,39.179944248950335)"><path d="M24.883 87.375l-1.269-4.736 8.647-2.316 1.89 7.053h4.485l-.172-.642 39.892-10.689 3.036 11.331h4.484L84.11 80.78l8.647-2.316 2.389 8.911h4.484L79.6 12.625h-4.484l1.048 3.91-8.648 2.317-1.668-6.227h-4.484l.548 2.047-39.893 10.689-3.412-12.736h-4.484l1.545 5.768-8.647 2.317-2.167-8.084H.369l20.029 74.75h4.485zm-2.614-9.757l-2.467-9.206 8.648-2.316 2.466 9.205-8.647 2.317zm69.143-4.175l-8.646 2.316-2.468-9.206 8.648-2.318 2.466 9.208zm-3.811-14.226l-8.647 2.316-2.467-9.207 8.647-2.316 2.467 9.207zm-3.813-14.228l-8.646 2.317-2.468-9.206 8.648-2.317 2.466 9.206zM77.51 21.555l2.466 9.206-8.647 2.317-2.467-9.206 8.648-2.317zm-12.609 4.276l10.465 39.055-39.892 10.687L25.009 36.52l39.892-10.689zm-56.535-.1l8.647-2.317 2.467 9.206-8.648 2.317-2.466-9.206zm3.811 14.227l8.648-2.317 2.467 9.207-8.647 2.317-2.468-9.207zm3.813 14.228l8.647-2.318 2.467 9.207-8.648 2.316-2.466-9.205z"></path></g><!----></svg>
